<svg width="86" height="73" viewBox="0 0 86 73" fill="none" xmlns="http://www.w3.org/2000/svg">
<g clip-path="url(#clip0_0_85638)">
<mask id="mask0_0_85638" style="mask-type:luminance" maskUnits="userSpaceOnUse" x="0" y="0" width="48" height="47">
<path d="M31.732 41.8268C27.9319 42.0805 23.9847 41.5712 20.6309 40.536H20.6268C16.8985 39.3847 13.8554 37.5599 12.4666 35.3731C12.1812 34.9234 11.9363 34.4462 11.7316 33.9479C11.1858 32.6184 10.9385 31.1497 10.9419 29.6142C8.39435 28.9311 0.497917 26.0232 0.167422 16.1595C0.00277771 11.2401 1.66755 9.68316 4.52123 9.5916C6.18672 9.53803 8.2097 10.0779 10.5155 10.6929C13.4646 11.4796 16.9041 12.3966 20.3963 12.2432C20.6511 12.0667 20.9074 11.8994 21.1655 11.7423C21.8082 11.3513 22.4673 11.0195 23.1367 10.7561C25.3426 9.88798 28.1886 9.16803 31.1674 9.47314C33.6286 8.84852 35.0991 6.80333 36.5026 4.84971C38.0157 2.74364 39.4635 0.728897 42.0561 0.161852C42.7063 0.0197962 43.3629 0.0275833 43.9909 0.211407C44.7338 0.429211 45.4228 0.884876 45.9936 1.61875C46.5141 2.28727 46.9369 3.1953 47.2059 4.37422C47.8941 7.3876 47.5935 12.3593 45.3126 19.9619C47.467 23.0202 49.0028 27.7352 45.8941 34.0243C45.4568 34.9088 44.9264 35.708 44.3185 36.4261C43.8028 37.0349 43.2298 37.5873 42.6096 38.0859C42.7482 39.207 42.7603 40.326 42.6038 41.3622C42.3495 43.0449 41.655 44.5249 40.3513 45.5019C39.7576 45.9471 39.045 46.2799 38.2013 46.4686C33.9907 47.413 32.5571 45.4903 31.9072 42.7131C31.8397 42.4248 31.7823 42.1286 31.732 41.8268Z" fill="white"/>
</mask>
<g mask="url(#mask0_0_85638)">
<path d="M49 0.0195312H0V47.413H49V0.0195312Z" fill="#FE750B"/>
</g>
<path d="M38.2461 12.58C39.2516 13.4619 40.2165 14.5598 41.1169 15.9129C41.552 16.1907 42.6722 16.9602 43.8643 18.2066C45.7195 11.6399 45.9617 7.35886 45.3704 4.77094C45.1655 3.87259 44.862 3.20478 44.497 2.73637C44.1832 2.33286 43.8252 2.08768 43.4523 1.97866C43.137 1.88663 42.7995 1.88404 42.461 1.9579C38.8844 2.73991 38.5812 9.79883 38.2461 12.58Z" fill="white"/>
<path d="M34.1445 10.1423C34.9424 10.4276 35.7358 10.8056 36.5137 11.2908C36.7598 9.54386 37.0587 8.06242 37.3487 6.86084C36.4402 8.08578 35.4487 9.27108 34.1445 10.1423Z" fill="white"/>
<path d="M34.5572 30.146C34.7968 30.2236 35.0101 30.2857 35.1875 30.3333C37.2474 27.6272 37.0461 25.7535 36.8371 25.0213C34.0671 24.3936 32.1854 25.1653 31.043 26.0027C32.1603 25.5336 33.658 25.2927 35.5853 25.7295C35.7704 26.3779 35.9493 27.9219 34.5572 30.146Z" fill="white"/>
<path d="M37.3105 39.8897C37.3105 39.8824 36.7785 37.3586 35.6055 34.875C35.2372 35.1714 34.7859 35.405 34.2657 35.577C33.8125 35.7269 33.3007 35.8298 32.7422 35.8862C33.0611 37.0059 33.1963 38.2527 33.3304 39.4892C33.4376 40.4761 33.544 41.457 33.7416 42.3018C34.1536 44.0624 35.0718 45.28 37.7808 44.6724C38.351 44.5447 38.8239 44.3265 39.2091 44.0376C40.0791 43.3856 40.553 42.3275 40.7389 41.0953C40.9412 39.7549 40.8059 38.2251 40.4627 36.7576C40.1256 35.3175 39.5948 33.9531 38.99 32.8931C38.45 33.3426 37.7992 33.6829 37.0333 33.8603C37.5788 35.4633 38.1051 37.9752 37.3105 39.8897Z" fill="white"/>
<path d="M14.2701 18.9746C13.2687 16.3711 7.23927 11.3456 4.57458 11.4308C2.89632 11.4843 1.92339 12.5892 2.04079 16.1014C2.3156 24.3147 8.56945 26.9923 11.0586 27.7347C11.3091 25.7272 11.9349 23.6587 12.8365 21.6782C13.2571 20.7546 13.7383 19.8482 14.2701 18.9746Z" fill="white"/>
<path d="M11.3594 12.8208C12.9509 13.97 14.4997 15.4217 15.4834 17.1632C16.3125 16.0291 17.2234 14.9795 18.191 14.0557C15.7783 13.8978 13.4696 13.3685 11.3594 12.8208Z" fill="white"/>
<path d="M25.1204 20.0632C26.7189 19.6439 28.5218 21.1548 29.1466 23.4379C29.2915 23.9665 29.36 24.4906 29.3605 24.9885C30.5004 23.9818 32.3952 22.8685 35.1517 22.9501C34.9524 22.6018 34.7894 22.2115 34.6737 21.7896C34.1503 19.8777 34.8116 18.0428 36.1509 17.6917C37.4895 17.3405 38.9995 18.6058 39.5229 20.5179C39.971 22.1542 39.5511 23.734 38.5813 24.3754C38.9128 25.4821 39.251 28.1368 36.5901 31.5667C36.6306 31.7335 36.661 31.8964 36.6812 32.0545C40.0585 31.2396 40.4654 25.8667 40.464 25.8516C41.2506 27.2694 41.2055 29.5602 40.2316 31.352C41.03 32.558 41.7457 34.2077 42.1982 35.9622C42.4306 35.7354 42.6518 35.4983 42.8618 35.2507C43.3789 34.6398 43.8275 33.9649 44.1939 33.2242C49.3451 22.8029 39.9761 17.384 39.9496 17.3682L39.6436 17.0758C37.2499 13.3972 34.3753 11.8258 31.5826 11.3841C28.7535 10.9365 25.9678 11.6253 23.832 12.466C23.2737 12.6855 22.7127 12.9694 22.1554 13.3082C19.092 15.1727 16.2807 18.6349 14.554 22.4291C12.85 26.1726 12.2164 30.203 13.4729 33.2629C13.6341 33.6555 13.8299 34.0357 14.0608 34.3998C15.2037 36.1993 17.8674 37.7504 21.1892 38.7762C24.3059 39.7387 27.963 40.2175 31.4878 39.9973L31.4536 39.684C31.3073 38.3342 31.1593 36.9698 30.7716 35.9103C30.309 35.8808 29.8281 35.8281 29.3335 35.7538C27.4556 35.4711 22.9796 32.9066 23.1635 30.0331C23.171 30.0425 25.7925 33.3535 29.6138 33.9288C31.2706 34.1782 32.6881 34.1544 33.6639 33.8318C34.019 33.7145 34.3041 33.5567 34.504 33.3589C34.6672 33.2001 34.7725 33.0005 34.8099 32.7624C34.8386 32.5793 34.8323 32.3709 34.7887 32.1363C33.4103 31.7696 29.9431 30.6063 28.2511 27.8711C27.9982 28.0877 27.7073 28.2458 27.3828 28.3308C25.7843 28.7501 23.9814 27.2392 23.3566 24.9559C22.732 22.6733 23.5215 20.4823 25.1204 20.0632Z" fill="white"/>
<path fill-rule="evenodd" clip-rule="evenodd" d="M14.2719 18.9746C13.455 16.8499 9.28894 13.112 6.33594 11.8555C6.33594 11.8555 15.213 19.5449 7.20183 25.9037C8.67495 26.9097 10.1307 27.4569 11.0607 27.7346C11.3112 25.7272 11.937 23.6586 12.8386 21.6781C13.259 20.7545 13.7401 19.8481 14.2719 18.9746Z" fill="#1CBBB4"/>
<path fill-rule="evenodd" clip-rule="evenodd" d="M30.7716 35.9103C30.7716 35.9103 28.2056 37.0422 20.3756 35.3291C12.5457 33.6156 12.9459 27.7656 12.9459 27.7656C12.6718 29.7459 12.8071 31.6408 13.4729 33.2626C13.6341 33.6553 13.8299 34.0354 14.0608 34.3996C15.2037 36.1991 17.8674 37.7501 21.1892 38.7759C24.3059 39.7385 27.963 40.2173 31.4878 39.9971L31.4536 39.6837C31.3073 38.3339 31.1593 36.9698 30.7716 35.9103Z" fill="#1CBBB4"/>
<path fill-rule="evenodd" clip-rule="evenodd" d="M40.2344 31.3513C41.0328 32.5574 41.7485 34.2071 42.201 35.9615C42.4333 35.7348 42.6546 35.4976 42.8646 35.2501C43.3817 34.6391 43.8303 33.9643 44.1967 33.2235C45.9232 29.7304 46.0184 26.7996 45.381 24.4453C43.9002 30.1984 40.2344 31.3513 40.2344 31.3513Z" fill="#1CBBB4"/>
<path fill-rule="evenodd" clip-rule="evenodd" d="M39.1089 6.63379C38.5679 8.81371 38.4107 11.2131 38.2461 12.5796C39.2516 13.4615 40.2165 14.5594 41.1169 15.9125C41.552 16.1903 42.6722 16.9598 43.8643 18.2062C44.5853 15.6539 45.0628 13.4473 45.3422 11.5508C38.5706 15.4104 39.1089 6.63379 39.1089 6.63379Z" fill="#1CBBB4"/>
</g>
<path d="M2.928 67.6291C2.336 67.6291 1.912 67.5411 1.656 67.3651C1.416 67.1891 1.264 66.9571 1.2 66.6691C1.136 66.3811 1.104 66.0851 1.104 65.7811V52.6771C1.104 52.3731 1.136 52.0851 1.2 51.8131C1.264 51.5251 1.424 51.2931 1.68 51.1171C1.936 50.9411 2.36 50.8531 2.952 50.8531H7.872C8.544 50.8531 9.216 50.9731 9.888 51.2131C10.576 51.4531 11.208 51.8291 11.784 52.3411C12.376 52.8371 12.848 53.4531 13.2 54.1891C13.568 54.9251 13.752 55.7891 13.752 56.7811C13.752 57.7571 13.568 58.6131 13.2 59.3491C12.848 60.0851 12.376 60.7011 11.784 61.1971C11.208 61.6771 10.576 62.0451 9.888 62.3011C9.2 62.5411 8.52 62.6611 7.848 62.6611H4.776V65.8051C4.776 66.1091 4.744 66.4051 4.68 66.6931C4.616 66.9651 4.456 67.1891 4.2 67.3651C3.944 67.5411 3.52 67.6291 2.928 67.6291ZM4.776 59.0131H7.872C8.224 59.0131 8.568 58.9411 8.904 58.7971C9.256 58.6371 9.544 58.3891 9.768 58.0531C10.008 57.7171 10.128 57.2851 10.128 56.7571C10.128 56.3091 10.032 55.9171 9.84 55.5811C9.648 55.2451 9.376 54.9811 9.024 54.7891C8.688 54.5971 8.296 54.5011 7.848 54.5011H4.776V59.0131ZM20.4643 67.6051C19.7283 67.6051 19.0323 67.4611 18.3763 67.1731C17.7363 66.8851 17.1763 66.4851 16.6963 65.9731C16.2163 65.4451 15.8403 64.8291 15.5683 64.1251C15.3123 63.4051 15.1843 62.6211 15.1843 61.7731V57.4291C15.1843 57.1091 15.2163 56.8131 15.2803 56.5411C15.3443 56.2691 15.4963 56.0451 15.7363 55.8691C15.9923 55.6931 16.4163 55.6051 17.0083 55.6051C17.6003 55.6051 18.0163 55.6931 18.2563 55.8691C18.5123 56.0451 18.6643 56.2771 18.7123 56.5651C18.7763 56.8371 18.8083 57.1331 18.8083 57.4531V61.7731C18.8083 62.2371 18.8883 62.6451 19.0483 62.9971C19.2243 63.3331 19.4723 63.5891 19.7923 63.7651C20.1283 63.9411 20.5203 64.0291 20.9683 64.0291C21.4323 64.0291 21.8243 63.9411 22.1443 63.7651C22.4803 63.5731 22.7363 63.3091 22.9123 62.9731C23.1043 62.6371 23.2003 62.2371 23.2003 61.7731V57.4051C23.2003 57.0851 23.2323 56.7891 23.2963 56.5171C23.3603 56.2451 23.5123 56.0291 23.7523 55.8691C24.0083 55.6931 24.4323 55.6051 25.0243 55.6051C25.6163 55.6051 26.0323 55.6931 26.2723 55.8691C26.5283 56.0451 26.6803 56.2771 26.7283 56.5651C26.7923 56.8371 26.8243 57.1251 26.8243 57.4291V65.8771C26.8243 66.1811 26.7923 66.4691 26.7283 66.7411C26.6803 66.9971 26.5283 67.2051 26.2723 67.3651C26.0163 67.5251 25.6003 67.6051 25.0243 67.6051C24.5923 67.6051 24.2563 67.5571 24.0163 67.4611C23.7763 67.3651 23.6003 67.2451 23.4883 67.1011C23.3763 66.9571 23.3043 66.8051 23.2723 66.6451C23.2563 66.4851 23.2483 66.3411 23.2483 66.2131L23.5603 65.9491C23.5123 66.0131 23.4083 66.1331 23.2483 66.3091C23.0883 66.4851 22.8723 66.6771 22.6003 66.8851C22.3443 67.0771 22.0403 67.2451 21.6883 67.3891C21.3363 67.5331 20.9283 67.6051 20.4643 67.6051ZM35.022 67.4131C34.238 67.4131 33.542 67.2611 32.934 66.9571C32.342 66.6371 31.846 66.2131 31.446 65.6851C31.062 65.1411 30.766 64.5171 30.558 63.8131C30.366 63.1091 30.278 62.3491 30.294 61.5331C30.294 60.7491 30.398 60.0051 30.606 59.3011C30.814 58.5811 31.11 57.9491 31.494 57.4051C31.894 56.8451 32.382 56.4131 32.958 56.1091C33.55 55.7891 34.238 55.6291 35.022 55.6291C35.726 55.6291 36.406 55.7891 37.062 56.1091C37.734 56.4291 38.326 56.8691 38.838 57.4291C39.35 57.9731 39.75 58.6051 40.038 59.3251C40.342 60.0451 40.494 60.8051 40.494 61.6051C40.494 62.4051 40.342 63.1651 40.038 63.8851C39.75 64.5891 39.35 65.2051 38.838 65.7331C38.326 66.2611 37.742 66.6771 37.086 66.9811C36.43 67.2691 35.742 67.4131 35.022 67.4131ZM30.39 72.5971C29.814 72.5971 29.398 72.5091 29.142 72.3331C28.902 72.1731 28.75 71.9571 28.686 71.6851C28.638 71.4291 28.614 71.1491 28.614 70.8451V57.4291C28.614 57.1091 28.638 56.8211 28.686 56.5651C28.734 56.2931 28.878 56.0691 29.118 55.8931C29.374 55.7171 29.79 55.6291 30.366 55.6291C30.862 55.6291 31.254 55.7011 31.542 55.8451C31.846 55.9891 32.062 56.2131 32.19 56.5171V70.8211C32.206 71.1251 32.182 71.4131 32.118 71.6851C32.054 71.9571 31.894 72.1731 31.638 72.3331C31.398 72.5091 30.982 72.5971 30.39 72.5971ZM34.518 64.0291C34.966 64.0291 35.366 63.9251 35.718 63.7171C36.07 63.4931 36.35 63.1971 36.558 62.8291C36.782 62.4611 36.894 62.0531 36.894 61.6051C36.894 61.1411 36.79 60.7331 36.582 60.3811C36.374 60.0131 36.094 59.7251 35.742 59.5171C35.39 59.3091 34.99 59.2051 34.542 59.2051C34.11 59.2051 33.71 59.3171 33.342 59.5411C32.99 59.7491 32.71 60.0371 32.502 60.4051C32.31 60.7571 32.214 61.1571 32.214 61.6051C32.214 62.0531 32.318 62.4611 32.526 62.8291C32.734 63.1971 33.014 63.4931 33.366 63.7171C33.718 63.9251 34.102 64.0291 34.518 64.0291ZM48.2642 67.4131C47.4802 67.4131 46.7842 67.2611 46.1762 66.9571C45.5842 66.6371 45.0882 66.2131 44.6882 65.6851C44.3042 65.1411 44.0082 64.5171 43.8002 63.8131C43.6082 63.1091 43.5202 62.3491 43.5362 61.5331C43.5362 60.7491 43.6402 60.0051 43.8482 59.3011C44.0562 58.5811 44.3522 57.9491 44.7362 57.4051C45.1362 56.8451 45.6242 56.4131 46.2002 56.1091C46.7922 55.7891 47.4802 55.6291 48.2642 55.6291C48.9682 55.6291 49.6482 55.7891 50.3042 56.1091C50.9762 56.4291 51.5682 56.8691 52.0802 57.4291C52.5922 57.9731 52.9922 58.6051 53.2802 59.3251C53.5842 60.0451 53.7362 60.8051 53.7362 61.6051C53.7362 62.4051 53.5842 63.1651 53.2802 63.8851C52.9922 64.5891 52.5922 65.2051 52.0802 65.7331C51.5682 66.2611 50.9842 66.6771 50.3282 66.9811C49.6722 67.2691 48.9842 67.4131 48.2642 67.4131ZM43.6322 72.5971C43.0562 72.5971 42.6402 72.5091 42.3842 72.3331C42.1442 72.1731 41.9922 71.9571 41.9282 71.6851C41.8802 71.4291 41.8562 71.1491 41.8562 70.8451V57.4291C41.8562 57.1091 41.8802 56.8211 41.9282 56.5651C41.9762 56.2931 42.1202 56.0691 42.3602 55.8931C42.6162 55.7171 43.0322 55.6291 43.6082 55.6291C44.1042 55.6291 44.4962 55.7011 44.7842 55.8451C45.0882 55.9891 45.3042 56.2131 45.4322 56.5171V70.8211C45.4482 71.1251 45.4242 71.4131 45.3602 71.6851C45.2962 71.9571 45.1362 72.1731 44.8802 72.3331C44.6402 72.5091 44.2242 72.5971 43.6322 72.5971ZM47.7602 64.0291C48.2082 64.0291 48.6082 63.9251 48.9602 63.7171C49.3122 63.4931 49.5922 63.1971 49.8002 62.8291C50.0242 62.4611 50.1362 62.0531 50.1362 61.6051C50.1362 61.1411 50.0322 60.7331 49.8242 60.3811C49.6162 60.0131 49.3362 59.7251 48.9842 59.5171C48.6322 59.3091 48.2322 59.2051 47.7842 59.2051C47.3522 59.2051 46.9522 59.3171 46.5842 59.5411C46.2322 59.7491 45.9522 60.0371 45.7442 60.4051C45.5522 60.7571 45.4562 61.1571 45.4562 61.6051C45.4562 62.0531 45.5602 62.4611 45.7682 62.8291C45.9762 63.1971 46.2562 63.4931 46.6082 63.7171C46.9602 63.9251 47.3442 64.0291 47.7602 64.0291ZM57.1384 67.6291C56.5464 67.6291 56.1224 67.5491 55.8664 67.3891C55.6264 67.2131 55.4744 66.9891 55.4104 66.7171C55.3624 66.4291 55.3384 66.1331 55.3384 65.8291V57.4531C55.3384 57.1331 55.3624 56.8371 55.4104 56.5651C55.4744 56.2931 55.6344 56.0771 55.8904 55.9171C56.1464 55.7411 56.5704 55.6531 57.1624 55.6531C57.7384 55.6531 58.1464 55.7411 58.3864 55.9171C58.6424 56.0931 58.7944 56.3171 58.8424 56.5891C58.9064 56.8611 58.9384 57.1651 58.9384 57.5011V65.8531C58.9384 66.1571 58.9064 66.4531 58.8424 66.7411C58.7944 67.0131 58.6424 67.2291 58.3864 67.3891C58.1464 67.5491 57.7304 67.6291 57.1384 67.6291ZM57.1384 53.9011C56.5304 53.9011 56.0984 53.8131 55.8424 53.6371C55.5864 53.4611 55.4264 53.2291 55.3624 52.9411C55.3144 52.6531 55.2904 52.3491 55.2904 52.0291C55.2904 51.6931 55.3224 51.3891 55.3864 51.1171C55.4504 50.8291 55.6104 50.6051 55.8664 50.4451C56.1224 50.2691 56.5544 50.1811 57.1624 50.1811C57.7544 50.1811 58.1784 50.2691 58.4344 50.4451C58.6904 50.6211 58.8424 50.8531 58.8904 51.1411C58.9544 51.4291 58.9864 51.7331 58.9864 52.0531C58.9864 52.3731 58.9544 52.6771 58.8904 52.9651C58.8424 53.2531 58.6904 53.4851 58.4344 53.6611C58.1784 53.8211 57.7464 53.9011 57.1384 53.9011ZM66.9829 67.8451C65.8629 67.8451 64.8949 67.6611 64.0789 67.2931C63.2789 66.9251 62.6229 66.4451 62.1109 65.8531C61.5989 65.2451 61.2149 64.5731 60.9589 63.8371C60.7189 63.1011 60.5989 62.3651 60.5989 61.6291C60.5989 60.4291 60.8709 59.3651 61.4149 58.4371C61.9589 57.5091 62.7109 56.7811 63.6709 56.2531C64.6309 55.7091 65.7349 55.4371 66.9829 55.4371C67.9109 55.4371 68.7109 55.5891 69.3829 55.8931C70.0709 56.1811 70.6309 56.5651 71.0629 57.0451C71.5109 57.5091 71.8389 58.0131 72.0469 58.5571C72.2709 59.1011 72.3829 59.6211 72.3829 60.1171C72.3829 60.9971 72.1669 61.6531 71.7349 62.0851C71.3189 62.5011 70.7829 62.7091 70.1269 62.7091H64.4149C64.4469 63.1251 64.5909 63.4771 64.8469 63.7651C65.1189 64.0531 65.4549 64.2771 65.8549 64.4371C66.2549 64.5971 66.6789 64.6771 67.1269 64.6771C67.5109 64.6771 67.8469 64.6611 68.1349 64.6291C68.4229 64.5811 68.6709 64.5251 68.8789 64.4611C69.0869 64.3811 69.2789 64.3091 69.4549 64.2451C69.6309 64.1651 69.7829 64.1011 69.9109 64.0531C70.0549 64.0051 70.1909 63.9731 70.3189 63.9571C70.5589 63.9411 70.7749 64.0131 70.9669 64.1731C71.1749 64.3171 71.3589 64.5411 71.5189 64.8451C71.6309 65.0211 71.7029 65.1891 71.7349 65.3491C71.7829 65.5091 71.8069 65.6691 71.8069 65.8291C71.8069 66.2131 71.6069 66.5571 71.2069 66.8611C70.8229 67.1651 70.2709 67.4051 69.5509 67.5811C68.8469 67.7571 67.9909 67.8451 66.9829 67.8451ZM64.4149 60.7411H68.2069C68.4629 60.7411 68.6469 60.7011 68.7589 60.6211C68.8869 60.5251 68.9509 60.3491 68.9509 60.0931C68.9509 59.8051 68.8629 59.5571 68.6869 59.3491C68.5109 59.1251 68.2709 58.9571 67.9669 58.8451C67.6789 58.7171 67.3429 58.6531 66.9589 58.6531C66.4629 58.6531 66.0229 58.7491 65.6389 58.9411C65.2549 59.1331 64.9509 59.3891 64.7269 59.7091C64.5189 60.0291 64.4149 60.3731 64.4149 60.7411ZM75.2415 67.6291C74.7455 67.6291 74.3215 67.4611 73.9695 67.1251C73.6335 66.7731 73.4655 66.3411 73.4655 65.8291C73.4655 65.5891 73.5055 65.3571 73.5855 65.1331C73.6815 64.9091 73.8255 64.7091 74.0175 64.5331L79.4415 59.2291H75.7935C75.4895 59.2291 75.1935 59.2051 74.9055 59.1571C74.6335 59.0931 74.4095 58.9331 74.2335 58.6771C74.0575 58.4211 73.9695 58.0051 73.9695 57.4291C73.9695 56.8371 74.0575 56.4211 74.2335 56.1811C74.4095 55.9251 74.6335 55.7731 74.9055 55.7251C75.1935 55.6611 75.4895 55.6291 75.7935 55.6291H83.3055C83.8175 55.6291 84.2415 55.7971 84.5775 56.1331C84.9135 56.4691 85.0815 56.8931 85.0815 57.4051C85.0815 57.6611 85.0335 57.9011 84.9375 58.1251C84.8575 58.3491 84.7375 58.5331 84.5775 58.6771L79.2495 64.0051H83.5935C83.9135 64.0051 84.2095 64.0371 84.4815 64.1011C84.7535 64.1651 84.9695 64.3251 85.1295 64.5811C85.3055 64.8371 85.3935 65.2611 85.3935 65.8531C85.3935 66.4291 85.3055 66.8451 85.1295 67.1011C84.9535 67.3571 84.7295 67.5091 84.4575 67.5571C84.1855 67.6051 83.8895 67.6291 83.5695 67.6291H75.2415Z" fill="white"/>
<defs>
<clipPath id="clip0_0_85638">
<rect width="49" height="47.3934" fill="white" transform="translate(0 0.0195312)"/>
</clipPath>
</defs>
</svg>
