<svg width="86" height="73" viewBox="0 0 86 73" fill="none" xmlns="http://www.w3.org/2000/svg">
<mask id="mask0_0_87484" style="mask-type:luminance" maskUnits="userSpaceOnUse" x="18" y="0" width="48" height="47">
<path d="M49.732 41.8073C45.9319 42.0609 41.9847 41.5517 38.6309 40.5165H38.6268C34.8985 39.3652 31.8554 37.5404 30.4666 35.3536C30.1812 34.9039 29.9363 34.4267 29.7316 33.9283C29.1858 32.5989 28.9385 31.1302 28.9419 29.5947C26.3944 28.9115 18.4979 26.0036 18.1674 16.1399C18.0028 11.2206 19.6675 9.66363 22.5212 9.57207C24.1867 9.5185 26.2097 10.0584 28.5155 10.6734C31.4646 11.4601 34.9041 12.3771 38.3963 12.2237C38.6511 12.0472 38.9074 11.8799 39.1655 11.7227C39.8082 11.3317 40.4673 10.9999 41.1367 10.7366C43.3426 9.86845 46.1886 9.1485 49.1674 9.45361C51.6286 8.82899 53.0991 6.7838 54.5026 4.83018C56.0157 2.72411 57.4635 0.709366 60.0561 0.142321C60.7063 0.000264943 61.3629 0.00805207 61.9909 0.191876C62.7338 0.409679 63.4228 0.865345 63.9936 1.59922C64.5141 2.26774 64.9369 3.17576 65.2059 4.35469C65.8941 7.36807 65.5935 12.3398 63.3126 19.9424C65.467 23.0006 67.0028 27.7156 63.8941 34.0048C63.4568 34.8892 62.9264 35.6885 62.3185 36.4065C61.8028 37.0153 61.2298 37.5678 60.6096 38.0664C60.7482 39.1875 60.7603 40.3065 60.6038 41.3426C60.3495 43.0254 59.655 44.5054 58.3513 45.4823C57.7576 45.9276 57.045 46.2603 56.2013 46.4491C51.9907 47.3935 50.5571 45.4708 49.9072 42.6936C49.8397 42.4052 49.7823 42.1091 49.732 41.8073Z" fill="white"/>
</mask>
<g mask="url(#mask0_0_87484)">
<path d="M67 0H18V47.3934H67V0Z" fill="#FE750B"/>
</g>
<path d="M56.2461 12.5605C57.2516 13.4423 58.2165 14.5403 59.1169 15.8934C59.552 16.1711 60.6722 16.9406 61.8643 18.187C63.7195 11.6204 63.9617 7.33933 63.3704 4.75141C63.1655 3.85306 62.862 3.18525 62.497 2.71684C62.1832 2.31333 61.8252 2.06815 61.4523 1.95913C61.137 1.8671 60.7995 1.86451 60.461 1.93837C56.8844 2.72038 56.5812 9.7793 56.2461 12.5605Z" fill="white"/>
<path d="M52.1445 10.1228C52.9424 10.4081 53.7358 10.7861 54.5137 11.2712C54.7598 9.52433 55.0587 8.04289 55.3487 6.84131C54.4402 8.06625 53.4487 9.25154 52.1445 10.1228Z" fill="white"/>
<path d="M52.5572 30.1264C52.7968 30.2041 53.0101 30.2661 53.1875 30.3138C55.2474 27.6076 55.0461 25.734 54.8371 25.0018C52.0671 24.3741 50.1854 25.1457 49.043 25.9832C50.1603 25.5141 51.658 25.2732 53.5853 25.7099C53.7704 26.3584 53.9493 27.9024 52.5572 30.1264Z" fill="white"/>
<path d="M55.3105 39.8702C55.3105 39.8628 54.7785 37.3391 53.6055 34.8555C53.2372 35.1519 52.7859 35.3855 52.2657 35.5575C51.8125 35.7073 51.3007 35.8102 50.7422 35.8666C51.0611 36.9863 51.1963 38.2332 51.3304 39.4697C51.4376 40.4566 51.544 41.4375 51.7416 42.2823C52.1536 44.0429 53.0718 45.2605 55.7808 44.6529C56.351 44.5252 56.8239 44.3069 57.2091 44.0181C58.0791 43.3661 58.553 42.308 58.7389 41.0757C58.9412 39.7354 58.8059 38.2056 58.4627 36.7381C58.1256 35.2979 57.5948 33.9335 56.99 32.8735C56.45 33.3231 55.7992 33.6633 55.0333 33.8408C55.5788 35.4438 56.1051 37.9557 55.3105 39.8702Z" fill="white"/>
<path d="M32.274 18.9551C31.2726 16.3516 25.2432 11.326 22.5785 11.4112C20.9002 11.4648 19.9273 12.5696 20.0447 16.0819C20.3195 24.2952 26.5734 26.9728 29.0626 27.7151C29.313 25.7077 29.9388 23.6392 30.8404 21.6586C31.261 20.735 31.7422 19.8286 32.274 18.9551Z" fill="white"/>
<path d="M29.3594 12.8013C30.9509 13.9505 32.4997 15.4022 33.4834 17.1437C34.3125 16.0096 35.2234 14.96 36.191 14.0361C33.7783 13.8783 31.4696 13.349 29.3594 12.8013Z" fill="white"/>
<path d="M43.1204 20.0434C44.7189 19.6241 46.5218 21.1351 47.1466 23.4181C47.2915 23.9467 47.36 24.4708 47.3605 24.9687C48.5004 23.962 50.3952 22.8487 53.1517 22.9303C52.9524 22.582 52.7894 22.1917 52.6737 21.7698C52.1503 19.858 52.8116 18.023 54.1509 17.6719C55.4895 17.3208 56.9995 18.5861 57.5229 20.4982C57.971 22.1344 57.5511 23.7142 56.5813 24.3556C56.9128 25.4623 57.251 28.117 54.5901 31.5469C54.6306 31.7138 54.661 31.8766 54.6812 32.0347C58.0585 31.2199 58.4654 25.847 58.464 25.8319C59.2506 27.2496 59.2055 29.5404 58.2316 31.3322C59.03 32.5382 59.7457 34.1879 60.1982 35.9424C60.4306 35.7156 60.6518 35.4785 60.8618 35.2309C61.3789 34.62 61.8275 33.9451 62.1939 33.2044C67.3451 22.7831 57.9761 17.3642 57.9496 17.3484L57.6436 17.056C55.2499 13.3774 52.3753 11.8061 49.5826 11.3643C46.7535 10.9167 43.9678 11.6055 41.832 12.4463C41.2737 12.6657 40.7127 12.9496 40.1554 13.2885C37.092 15.1529 34.2807 18.6151 32.554 22.4093C30.85 26.1528 30.2164 30.1832 31.4729 33.2431C31.6341 33.6358 31.8299 34.0159 32.0608 34.38C33.2037 36.1796 35.8674 37.7306 39.1892 38.7564C42.3059 39.7189 45.963 40.1977 49.4878 39.9776L49.4536 39.6642C49.3073 38.3144 49.1593 36.95 48.7716 35.8905C48.309 35.861 47.8281 35.8084 47.3335 35.734C45.4556 35.4513 40.9796 32.8868 41.1635 30.0133C41.171 30.0228 43.7925 33.3337 47.6138 33.909C49.2706 34.1584 50.6881 34.1346 51.6639 33.812C52.019 33.6948 52.3041 33.5369 52.504 33.3391C52.6672 33.1803 52.7725 32.9807 52.8099 32.7426C52.8386 32.5595 52.8323 32.3511 52.7887 32.1166C51.4103 31.7499 47.9431 30.5865 46.2511 27.8513C45.9982 28.068 45.7073 28.2261 45.3828 28.311C43.7843 28.7303 41.9814 27.2194 41.3566 24.9361C40.732 22.6535 41.5215 20.4625 43.1204 20.0434Z" fill="white"/>
<path fill-rule="evenodd" clip-rule="evenodd" d="M32.2719 18.955C31.455 16.8303 27.2889 13.0925 24.3359 11.8359C24.3359 11.8359 33.213 19.5254 25.2018 25.8842C26.675 26.8901 28.1307 27.4373 29.0607 27.7151C29.3112 25.7077 29.937 23.6391 30.8386 21.6586C31.259 20.735 31.7401 19.8286 32.2719 18.955Z" fill="#1CBBB4"/>
<path fill-rule="evenodd" clip-rule="evenodd" d="M48.7756 35.8907C48.7756 35.8907 46.2095 37.0227 38.3796 35.3095C30.5497 33.5961 30.9498 27.7461 30.9498 27.7461C30.6757 29.7264 30.811 31.6213 31.4768 33.2431C31.638 33.6358 31.8338 34.0159 32.0647 34.38C33.2076 36.1796 35.8713 37.7306 39.1931 38.7564C42.3098 39.7189 45.967 40.1977 49.4917 39.9776L49.4575 39.6642C49.3112 38.3144 49.1632 36.9502 48.7756 35.8907Z" fill="#1CBBB4"/>
<path fill-rule="evenodd" clip-rule="evenodd" d="M58.2344 31.3323C59.0328 32.5383 59.7485 34.188 60.201 35.9425C60.4333 35.7157 60.6546 35.4786 60.8646 35.231C61.3817 34.6201 61.8303 33.9452 62.1967 33.2045C63.9232 29.7114 64.0184 26.7806 63.381 24.4263C61.9002 30.1793 58.2344 31.3323 58.2344 31.3323Z" fill="#1CBBB4"/>
<path fill-rule="evenodd" clip-rule="evenodd" d="M57.1089 6.6145C56.5679 8.79443 56.4107 11.1938 56.2461 12.5603C57.2516 13.4422 58.2165 14.5402 59.1169 15.8932C59.552 16.171 60.6722 16.9405 61.8643 18.1869C62.5853 15.6346 63.0628 13.428 63.3422 11.5315C56.5706 15.3911 57.1089 6.6145 57.1089 6.6145Z" fill="#1CBBB4"/>
<path d="M2.928 67.6096C2.336 67.6096 1.912 67.5216 1.656 67.3456C1.416 67.1696 1.264 66.9376 1.2 66.6496C1.136 66.3616 1.104 66.0656 1.104 65.7616V52.6576C1.104 52.3536 1.136 52.0656 1.2 51.7936C1.264 51.5056 1.424 51.2736 1.68 51.0976C1.936 50.9216 2.36 50.8336 2.952 50.8336H7.872C8.544 50.8336 9.216 50.9536 9.888 51.1936C10.576 51.4336 11.208 51.8096 11.784 52.3216C12.376 52.8176 12.848 53.4336 13.2 54.1696C13.568 54.9056 13.752 55.7696 13.752 56.7616C13.752 57.7376 13.568 58.5936 13.2 59.3296C12.848 60.0656 12.376 60.6816 11.784 61.1776C11.208 61.6576 10.576 62.0256 9.888 62.2816C9.2 62.5216 8.52 62.6416 7.848 62.6416H4.776V65.7856C4.776 66.0896 4.744 66.3856 4.68 66.6736C4.616 66.9456 4.456 67.1696 4.2 67.3456C3.944 67.5216 3.52 67.6096 2.928 67.6096ZM4.776 58.9936H7.872C8.224 58.9936 8.568 58.9216 8.904 58.7776C9.256 58.6176 9.544 58.3696 9.768 58.0336C10.008 57.6976 10.128 57.2656 10.128 56.7376C10.128 56.2896 10.032 55.8976 9.84 55.5616C9.648 55.2256 9.376 54.9616 9.024 54.7696C8.688 54.5776 8.296 54.4816 7.848 54.4816H4.776V58.9936ZM20.4643 67.5856C19.7283 67.5856 19.0323 67.4416 18.3763 67.1536C17.7363 66.8656 17.1763 66.4656 16.6963 65.9536C16.2163 65.4256 15.8403 64.8096 15.5683 64.1056C15.3123 63.3856 15.1843 62.6016 15.1843 61.7536V57.4096C15.1843 57.0896 15.2163 56.7936 15.2803 56.5216C15.3443 56.2496 15.4963 56.0256 15.7363 55.8496C15.9923 55.6736 16.4163 55.5856 17.0083 55.5856C17.6003 55.5856 18.0163 55.6736 18.2563 55.8496C18.5123 56.0256 18.6643 56.2576 18.7123 56.5456C18.7763 56.8176 18.8083 57.1136 18.8083 57.4336V61.7536C18.8083 62.2176 18.8883 62.6256 19.0483 62.9776C19.2243 63.3136 19.4723 63.5696 19.7923 63.7456C20.1283 63.9216 20.5203 64.0096 20.9683 64.0096C21.4323 64.0096 21.8243 63.9216 22.1443 63.7456C22.4803 63.5536 22.7363 63.2896 22.9123 62.9536C23.1043 62.6176 23.2003 62.2176 23.2003 61.7536V57.3856C23.2003 57.0656 23.2323 56.7696 23.2963 56.4976C23.3603 56.2256 23.5123 56.0096 23.7523 55.8496C24.0083 55.6736 24.4323 55.5856 25.0243 55.5856C25.6163 55.5856 26.0323 55.6736 26.2723 55.8496C26.5283 56.0256 26.6803 56.2576 26.7283 56.5456C26.7923 56.8176 26.8243 57.1056 26.8243 57.4096V65.8576C26.8243 66.1616 26.7923 66.4496 26.7283 66.7216C26.6803 66.9776 26.5283 67.1856 26.2723 67.3456C26.0163 67.5056 25.6003 67.5856 25.0243 67.5856C24.5923 67.5856 24.2563 67.5376 24.0163 67.4416C23.7763 67.3456 23.6003 67.2256 23.4883 67.0816C23.3763 66.9376 23.3043 66.7856 23.2723 66.6256C23.2563 66.4656 23.2483 66.3216 23.2483 66.1936L23.5603 65.9296C23.5123 65.9936 23.4083 66.1136 23.2483 66.2896C23.0883 66.4656 22.8723 66.6576 22.6003 66.8656C22.3443 67.0576 22.0403 67.2256 21.6883 67.3696C21.3363 67.5136 20.9283 67.5856 20.4643 67.5856ZM35.022 67.3936C34.238 67.3936 33.542 67.2416 32.934 66.9376C32.342 66.6176 31.846 66.1936 31.446 65.6656C31.062 65.1216 30.766 64.4976 30.558 63.7936C30.366 63.0896 30.278 62.3296 30.294 61.5136C30.294 60.7296 30.398 59.9856 30.606 59.2816C30.814 58.5616 31.11 57.9296 31.494 57.3856C31.894 56.8256 32.382 56.3936 32.958 56.0896C33.55 55.7696 34.238 55.6096 35.022 55.6096C35.726 55.6096 36.406 55.7696 37.062 56.0896C37.734 56.4096 38.326 56.8496 38.838 57.4096C39.35 57.9536 39.75 58.5856 40.038 59.3056C40.342 60.0256 40.494 60.7856 40.494 61.5856C40.494 62.3856 40.342 63.1456 40.038 63.8656C39.75 64.5696 39.35 65.1856 38.838 65.7136C38.326 66.2416 37.742 66.6576 37.086 66.9616C36.43 67.2496 35.742 67.3936 35.022 67.3936ZM30.39 72.5776C29.814 72.5776 29.398 72.4896 29.142 72.3136C28.902 72.1536 28.75 71.9376 28.686 71.6656C28.638 71.4096 28.614 71.1296 28.614 70.8256V57.4096C28.614 57.0896 28.638 56.8016 28.686 56.5456C28.734 56.2736 28.878 56.0496 29.118 55.8736C29.374 55.6976 29.79 55.6096 30.366 55.6096C30.862 55.6096 31.254 55.6816 31.542 55.8256C31.846 55.9696 32.062 56.1936 32.19 56.4976V70.8016C32.206 71.1056 32.182 71.3936 32.118 71.6656C32.054 71.9376 31.894 72.1536 31.638 72.3136C31.398 72.4896 30.982 72.5776 30.39 72.5776ZM34.518 64.0096C34.966 64.0096 35.366 63.9056 35.718 63.6976C36.07 63.4736 36.35 63.1776 36.558 62.8096C36.782 62.4416 36.894 62.0336 36.894 61.5856C36.894 61.1216 36.79 60.7136 36.582 60.3616C36.374 59.9936 36.094 59.7056 35.742 59.4976C35.39 59.2896 34.99 59.1856 34.542 59.1856C34.11 59.1856 33.71 59.2976 33.342 59.5216C32.99 59.7296 32.71 60.0176 32.502 60.3856C32.31 60.7376 32.214 61.1376 32.214 61.5856C32.214 62.0336 32.318 62.4416 32.526 62.8096C32.734 63.1776 33.014 63.4736 33.366 63.6976C33.718 63.9056 34.102 64.0096 34.518 64.0096ZM48.2642 67.3936C47.4802 67.3936 46.7842 67.2416 46.1762 66.9376C45.5842 66.6176 45.0882 66.1936 44.6882 65.6656C44.3042 65.1216 44.0082 64.4976 43.8002 63.7936C43.6082 63.0896 43.5202 62.3296 43.5362 61.5136C43.5362 60.7296 43.6402 59.9856 43.8482 59.2816C44.0562 58.5616 44.3522 57.9296 44.7362 57.3856C45.1362 56.8256 45.6242 56.3936 46.2002 56.0896C46.7922 55.7696 47.4802 55.6096 48.2642 55.6096C48.9682 55.6096 49.6482 55.7696 50.3042 56.0896C50.9762 56.4096 51.5682 56.8496 52.0802 57.4096C52.5922 57.9536 52.9922 58.5856 53.2802 59.3056C53.5842 60.0256 53.7362 60.7856 53.7362 61.5856C53.7362 62.3856 53.5842 63.1456 53.2802 63.8656C52.9922 64.5696 52.5922 65.1856 52.0802 65.7136C51.5682 66.2416 50.9842 66.6576 50.3282 66.9616C49.6722 67.2496 48.9842 67.3936 48.2642 67.3936ZM43.6322 72.5776C43.0562 72.5776 42.6402 72.4896 42.3842 72.3136C42.1442 72.1536 41.9922 71.9376 41.9282 71.6656C41.8802 71.4096 41.8562 71.1296 41.8562 70.8256V57.4096C41.8562 57.0896 41.8802 56.8016 41.9282 56.5456C41.9762 56.2736 42.1202 56.0496 42.3602 55.8736C42.6162 55.6976 43.0322 55.6096 43.6082 55.6096C44.1042 55.6096 44.4962 55.6816 44.7842 55.8256C45.0882 55.9696 45.3042 56.1936 45.4322 56.4976V70.8016C45.4482 71.1056 45.4242 71.3936 45.3602 71.6656C45.2962 71.9376 45.1362 72.1536 44.8802 72.3136C44.6402 72.4896 44.2242 72.5776 43.6322 72.5776ZM47.7602 64.0096C48.2082 64.0096 48.6082 63.9056 48.9602 63.6976C49.3122 63.4736 49.5922 63.1776 49.8002 62.8096C50.0242 62.4416 50.1362 62.0336 50.1362 61.5856C50.1362 61.1216 50.0322 60.7136 49.8242 60.3616C49.6162 59.9936 49.3362 59.7056 48.9842 59.4976C48.6322 59.2896 48.2322 59.1856 47.7842 59.1856C47.3522 59.1856 46.9522 59.2976 46.5842 59.5216C46.2322 59.7296 45.9522 60.0176 45.7442 60.3856C45.5522 60.7376 45.4562 61.1376 45.4562 61.5856C45.4562 62.0336 45.5602 62.4416 45.7682 62.8096C45.9762 63.1776 46.2562 63.4736 46.6082 63.6976C46.9602 63.9056 47.3442 64.0096 47.7602 64.0096ZM57.1384 67.6096C56.5464 67.6096 56.1224 67.5296 55.8664 67.3696C55.6264 67.1936 55.4744 66.9696 55.4104 66.6976C55.3624 66.4096 55.3384 66.1136 55.3384 65.8096V57.4336C55.3384 57.1136 55.3624 56.8176 55.4104 56.5456C55.4744 56.2736 55.6344 56.0576 55.8904 55.8976C56.1464 55.7216 56.5704 55.6336 57.1624 55.6336C57.7384 55.6336 58.1464 55.7216 58.3864 55.8976C58.6424 56.0736 58.7944 56.2976 58.8424 56.5696C58.9064 56.8416 58.9384 57.1456 58.9384 57.4816V65.8336C58.9384 66.1376 58.9064 66.4336 58.8424 66.7216C58.7944 66.9936 58.6424 67.2096 58.3864 67.3696C58.1464 67.5296 57.7304 67.6096 57.1384 67.6096ZM57.1384 53.8816C56.5304 53.8816 56.0984 53.7936 55.8424 53.6176C55.5864 53.4416 55.4264 53.2096 55.3624 52.9216C55.3144 52.6336 55.2904 52.3296 55.2904 52.0096C55.2904 51.6736 55.3224 51.3696 55.3864 51.0976C55.4504 50.8096 55.6104 50.5856 55.8664 50.4256C56.1224 50.2496 56.5544 50.1616 57.1624 50.1616C57.7544 50.1616 58.1784 50.2496 58.4344 50.4256C58.6904 50.6016 58.8424 50.8336 58.8904 51.1216C58.9544 51.4096 58.9864 51.7136 58.9864 52.0336C58.9864 52.3536 58.9544 52.6576 58.8904 52.9456C58.8424 53.2336 58.6904 53.4656 58.4344 53.6416C58.1784 53.8016 57.7464 53.8816 57.1384 53.8816ZM66.9829 67.8256C65.8629 67.8256 64.8949 67.6416 64.0789 67.2736C63.2789 66.9056 62.6229 66.4256 62.1109 65.8336C61.5989 65.2256 61.2149 64.5536 60.9589 63.8176C60.7189 63.0816 60.5989 62.3456 60.5989 61.6096C60.5989 60.4096 60.8709 59.3456 61.4149 58.4176C61.9589 57.4896 62.7109 56.7616 63.6709 56.2336C64.6309 55.6896 65.7349 55.4176 66.9829 55.4176C67.9109 55.4176 68.7109 55.5696 69.3829 55.8736C70.0709 56.1616 70.6309 56.5456 71.0629 57.0256C71.5109 57.4896 71.8389 57.9936 72.0469 58.5376C72.2709 59.0816 72.3829 59.6016 72.3829 60.0976C72.3829 60.9776 72.1669 61.6336 71.7349 62.0656C71.3189 62.4816 70.7829 62.6896 70.1269 62.6896H64.4149C64.4469 63.1056 64.5909 63.4576 64.8469 63.7456C65.1189 64.0336 65.4549 64.2576 65.8549 64.4176C66.2549 64.5776 66.6789 64.6576 67.1269 64.6576C67.5109 64.6576 67.8469 64.6416 68.1349 64.6096C68.4229 64.5616 68.6709 64.5056 68.8789 64.4416C69.0869 64.3616 69.2789 64.2896 69.4549 64.2256C69.6309 64.1456 69.7829 64.0816 69.9109 64.0336C70.0549 63.9856 70.1909 63.9536 70.3189 63.9376C70.5589 63.9216 70.7749 63.9936 70.9669 64.1536C71.1749 64.2976 71.3589 64.5216 71.5189 64.8256C71.6309 65.0016 71.7029 65.1696 71.7349 65.3296C71.7829 65.4896 71.8069 65.6496 71.8069 65.8096C71.8069 66.1936 71.6069 66.5376 71.2069 66.8416C70.8229 67.1456 70.2709 67.3856 69.5509 67.5616C68.8469 67.7376 67.9909 67.8256 66.9829 67.8256ZM64.4149 60.7216H68.2069C68.4629 60.7216 68.6469 60.6816 68.7589 60.6016C68.8869 60.5056 68.9509 60.3296 68.9509 60.0736C68.9509 59.7856 68.8629 59.5376 68.6869 59.3296C68.5109 59.1056 68.2709 58.9376 67.9669 58.8256C67.6789 58.6976 67.3429 58.6336 66.9589 58.6336C66.4629 58.6336 66.0229 58.7296 65.6389 58.9216C65.2549 59.1136 64.9509 59.3696 64.7269 59.6896C64.5189 60.0096 64.4149 60.3536 64.4149 60.7216ZM75.2415 67.6096C74.7455 67.6096 74.3215 67.4416 73.9695 67.1056C73.6335 66.7536 73.4655 66.3216 73.4655 65.8096C73.4655 65.5696 73.5055 65.3376 73.5855 65.1136C73.6815 64.8896 73.8255 64.6896 74.0175 64.5136L79.4415 59.2096H75.7935C75.4895 59.2096 75.1935 59.1856 74.9055 59.1376C74.6335 59.0736 74.4095 58.9136 74.2335 58.6576C74.0575 58.4016 73.9695 57.9856 73.9695 57.4096C73.9695 56.8176 74.0575 56.4016 74.2335 56.1616C74.4095 55.9056 74.6335 55.7536 74.9055 55.7056C75.1935 55.6416 75.4895 55.6096 75.7935 55.6096H83.3055C83.8175 55.6096 84.2415 55.7776 84.5775 56.1136C84.9135 56.4496 85.0815 56.8736 85.0815 57.3856C85.0815 57.6416 85.0335 57.8816 84.9375 58.1056C84.8575 58.3296 84.7375 58.5136 84.5775 58.6576L79.2495 63.9856H83.5935C83.9135 63.9856 84.2095 64.0176 84.4815 64.0816C84.7535 64.1456 84.9695 64.3056 85.1295 64.5616C85.3055 64.8176 85.3935 65.2416 85.3935 65.8336C85.3935 66.4096 85.3055 66.8256 85.1295 67.0816C84.9535 67.3376 84.7295 67.4896 84.4575 67.5376C84.1855 67.5856 83.8895 67.6096 83.5695 67.6096H75.2415Z" fill="#103741"/>
</svg>
