<svg width="61" height="61" viewBox="0 0 61 61" fill="none" xmlns="http://www.w3.org/2000/svg">
<path d="M58.4578 14.988L52.9007 10.0186V8.25973C52.8967 5.09993 50.3326 2.53996 47.1728 2.54199H13.8261C10.6663 2.53996 8.10231 5.09993 8.09825 8.25973V10.0186L2.53505 14.9921C1.24591 16.145 0.509846 17.792 0.507812 19.5203V52.7409C0.511879 55.8967 3.06981 58.4546 6.22555 58.4587H54.7734C57.9291 58.4546 60.4871 55.8967 60.4912 52.7409V19.5203C60.4891 17.79 59.749 16.1409 58.4578 14.988ZM54.7734 55.4087H6.22555C4.75341 55.4066 3.55985 54.2131 3.55781 52.7409V19.5203C3.41955 17.4829 6.44311 15.8156 8.09825 14.1096V25.0571C8.11655 27.0477 11.132 27.0538 11.1482 25.0571V8.25973C11.1482 6.78353 12.3499 5.58793 13.8261 5.59199H47.1728C48.647 5.59403 49.8406 6.78556 49.8426 8.25973V25.0571C49.8385 27.0437 52.8906 27.0559 52.8926 25.0571V14.1096C54.5294 15.7953 57.5896 17.5114 57.4391 19.5244V52.7409C57.4371 54.2131 56.2456 55.4066 54.7734 55.4087Z" fill="#FE750B"/>
<path d="M52.7357 30.846C52.3596 30.0896 51.4344 29.7867 50.6841 30.171L32.8497 39.2437C31.3633 39.9859 29.6147 39.9859 28.1303 39.2437L10.3143 30.171C8.56968 29.2316 7.10568 31.8993 8.86654 32.855C8.84214 32.8895 17.7624 37.3466 17.7664 37.3832L8.43548 49.0037C7.27241 50.549 9.54568 52.3933 10.8124 50.913L20.5358 38.7964L26.7395 41.9521C29.0962 43.1294 31.8696 43.1294 34.2263 41.9521L40.432 38.7984L50.1778 50.913C51.4181 52.4583 53.8073 50.5653 52.5547 49.0017L43.2116 37.3852L52.0566 32.8895C52.8089 32.5134 53.1139 31.5984 52.7357 30.846Z" fill="#FE750B"/>
<path d="M23.8566 14.7585H37.1424C39.133 14.7504 39.1391 11.7166 37.1424 11.7085H23.8566C21.866 11.7166 21.8599 14.7504 23.8566 14.7585Z" fill="#FE750B"/>
<path d="M17.216 22.3488H43.7835C45.7701 22.3407 45.7843 19.307 43.7835 19.2988H17.216C15.2294 19.307 15.2152 22.3407 17.216 22.3488Z" fill="#FE750B"/>
</svg>
