<svg width="16" height="17" viewBox="0 0 16 17" fill="none" xmlns="http://www.w3.org/2000/svg">
<path d="M3.09375 0.375C3.49219 0.375 3.82031 0.515625 4.07812 0.796875C4.35938 1.05469 4.5 1.38281 4.5 1.78125V3.46875C4.5 3.86719 4.35938 4.19531 4.07812 4.45312C3.82031 4.73438 3.49219 4.875 3.09375 4.875H1.40625C1.00781 4.875 0.679688 4.73438 0.421875 4.45312C0.140625 4.19531 0 3.86719 0 3.46875V1.78125C0 1.38281 0.140625 1.05469 0.421875 0.796875C0.679688 0.515625 1.00781 0.375 1.40625 0.375H3.09375ZM3.09375 1.5H1.40625C1.24219 1.52344 1.14844 1.61719 1.125 1.78125V3.46875C1.14844 3.63281 1.24219 3.72656 1.40625 3.75H3.09375C3.25781 3.72656 3.35156 3.63281 3.375 3.46875V1.78125C3.35156 1.61719 3.25781 1.52344 3.09375 1.5ZM3.09375 6C3.49219 6 3.82031 6.14062 4.07812 6.42188C4.35938 6.67969 4.5 7.00781 4.5 7.40625V9.09375C4.5 9.49219 4.35938 9.82031 4.07812 10.0781C3.82031 10.3594 3.49219 10.5 3.09375 10.5H1.40625C1.00781 10.5 0.679688 10.3594 0.421875 10.0781C0.140625 9.82031 0 9.49219 0 9.09375V7.40625C0 7.00781 0.140625 6.67969 0.421875 6.42188C0.679688 6.14062 1.00781 6 1.40625 6H3.09375ZM3.09375 7.125H1.40625C1.24219 7.14844 1.14844 7.24219 1.125 7.40625V9.09375C1.14844 9.25781 1.24219 9.35156 1.40625 9.375H3.09375C3.25781 9.35156 3.35156 9.25781 3.375 9.09375V7.40625C3.35156 7.24219 3.25781 7.14844 3.09375 7.125ZM0 13.0312C0 12.6328 0.140625 12.3047 0.421875 12.0469C0.679688 11.7656 1.00781 11.625 1.40625 11.625H3.09375C3.49219 11.625 3.82031 11.7656 4.07812 12.0469C4.35938 12.3047 4.5 12.6328 4.5 13.0312V14.7188C4.5 15.1172 4.35938 15.4453 4.07812 15.7031C3.82031 15.9844 3.49219 16.125 3.09375 16.125H1.40625C1.00781 16.125 0.679688 15.9844 0.421875 15.7031C0.140625 15.4453 0 15.1172 0 14.7188V13.0312ZM1.125 13.0312V14.7188C1.14844 14.8828 1.24219 14.9766 1.40625 15H3.09375C3.25781 14.9766 3.35156 14.8828 3.375 14.7188V13.0312C3.35156 12.8672 3.25781 12.7734 3.09375 12.75H1.40625C1.24219 12.7734 1.14844 12.8672 1.125 13.0312ZM8.71875 0.375C9.11719 0.375 9.44531 0.515625 9.70312 0.796875C9.98438 1.05469 10.125 1.38281 10.125 1.78125V3.46875C10.125 3.86719 9.98438 4.19531 9.70312 4.45312C9.44531 4.73438 9.11719 4.875 8.71875 4.875H7.03125C6.63281 4.875 6.30469 4.73438 6.04688 4.45312C5.76562 4.19531 5.625 3.86719 5.625 3.46875V1.78125C5.625 1.38281 5.76562 1.05469 6.04688 0.796875C6.30469 0.515625 6.63281 0.375 7.03125 0.375H8.71875ZM8.71875 1.5H7.03125C6.86719 1.52344 6.77344 1.61719 6.75 1.78125V3.46875C6.77344 3.63281 6.86719 3.72656 7.03125 3.75H8.71875C8.88281 3.72656 8.97656 3.63281 9 3.46875V1.78125C8.97656 1.61719 8.88281 1.52344 8.71875 1.5ZM5.625 7.40625C5.625 7.00781 5.76562 6.67969 6.04688 6.42188C6.30469 6.14062 6.63281 6 7.03125 6H8.71875C9.11719 6 9.44531 6.14062 9.70312 6.42188C9.98438 6.67969 10.125 7.00781 10.125 7.40625V9.09375C10.125 9.49219 9.98438 9.82031 9.70312 10.0781C9.44531 10.3594 9.11719 10.5 8.71875 10.5H7.03125C6.63281 10.5 6.30469 10.3594 6.04688 10.0781C5.76562 9.82031 5.625 9.49219 5.625 9.09375V7.40625ZM6.75 7.40625V9.09375C6.77344 9.25781 6.86719 9.35156 7.03125 9.375H8.71875C8.88281 9.35156 8.97656 9.25781 9 9.09375V7.40625C8.97656 7.24219 8.88281 7.14844 8.71875 7.125H7.03125C6.86719 7.14844 6.77344 7.24219 6.75 7.40625ZM8.71875 11.625C9.11719 11.625 9.44531 11.7656 9.70312 12.0469C9.98438 12.3047 10.125 12.6328 10.125 13.0312V14.7188C10.125 15.1172 9.98438 15.4453 9.70312 15.7031C9.44531 15.9844 9.11719 16.125 8.71875 16.125H7.03125C6.63281 16.125 6.30469 15.9844 6.04688 15.7031C5.76562 15.4453 5.625 15.1172 5.625 14.7188V13.0312C5.625 12.6328 5.76562 12.3047 6.04688 12.0469C6.30469 11.7656 6.63281 11.625 7.03125 11.625H8.71875ZM8.71875 12.75H7.03125C6.86719 12.7734 6.77344 12.8672 6.75 13.0312V14.7188C6.77344 14.8828 6.86719 14.9766 7.03125 15H8.71875C8.88281 14.9766 8.97656 14.8828 9 14.7188V13.0312C8.97656 12.8672 8.88281 12.7734 8.71875 12.75ZM11.25 1.78125C11.25 1.38281 11.3906 1.05469 11.6719 0.796875C11.9297 0.515625 12.2578 0.375 12.6562 0.375H14.3438C14.7422 0.375 15.0703 0.515625 15.3281 0.796875C15.6094 1.05469 15.75 1.38281 15.75 1.78125V3.46875C15.75 3.86719 15.6094 4.19531 15.3281 4.45312C15.0703 4.73438 14.7422 4.875 14.3438 4.875H12.6562C12.2578 4.875 11.9297 4.73438 11.6719 4.45312C11.3906 4.19531 11.25 3.86719 11.25 3.46875V1.78125ZM12.375 1.78125V3.46875C12.3984 3.63281 12.4922 3.72656 12.6562 3.75H14.3438C14.5078 3.72656 14.6016 3.63281 14.625 3.46875V1.78125C14.6016 1.61719 14.5078 1.52344 14.3438 1.5H12.6562C12.4922 1.52344 12.3984 1.61719 12.375 1.78125ZM14.3438 6C14.7422 6 15.0703 6.14062 15.3281 6.42188C15.6094 6.67969 15.75 7.00781 15.75 7.40625V9.09375C15.75 9.49219 15.6094 9.82031 15.3281 10.0781C15.0703 10.3594 14.7422 10.5 14.3438 10.5H12.6562C12.2578 10.5 11.9297 10.3594 11.6719 10.0781C11.3906 9.82031 11.25 9.49219 11.25 9.09375V7.40625C11.25 7.00781 11.3906 6.67969 11.6719 6.42188C11.9297 6.14062 12.2578 6 12.6562 6H14.3438ZM14.3438 7.125H12.6562C12.4922 7.14844 12.3984 7.24219 12.375 7.40625V9.09375C12.3984 9.25781 12.4922 9.35156 12.6562 9.375H14.3438C14.5078 9.35156 14.6016 9.25781 14.625 9.09375V7.40625C14.6016 7.24219 14.5078 7.14844 14.3438 7.125ZM11.25 13.0312C11.25 12.6328 11.3906 12.3047 11.6719 12.0469C11.9297 11.7656 12.2578 11.625 12.6562 11.625H14.3438C14.7422 11.625 15.0703 11.7656 15.3281 12.0469C15.6094 12.3047 15.75 12.6328 15.75 13.0312V14.7188C15.75 15.1172 15.6094 15.4453 15.3281 15.7031C15.0703 15.9844 14.7422 16.125 14.3438 16.125H12.6562C12.2578 16.125 11.9297 15.9844 11.6719 15.7031C11.3906 15.4453 11.25 15.1172 11.25 14.7188V13.0312ZM12.375 13.0312V14.7188C12.3984 14.8828 12.4922 14.9766 12.6562 15H14.3438C14.5078 14.9766 14.6016 14.8828 14.625 14.7188V13.0312C14.6016 12.8672 14.5078 12.7734 14.3438 12.75H12.6562C12.4922 12.7734 12.3984 12.8672 12.375 13.0312Z" fill="#080809"/>
</svg>
